<?xml version="1.0" encoding="UTF-8"?>
<svg xmlns="http://www.w3.org/2000/svg" xmlns:xlink="http://www.w3.org/1999/xlink" width="256pt" height="256pt" viewBox="0 0 256 256" version="1.1">
<defs>
<linearGradient id="linear0" gradientUnits="userSpaceOnUse" x1="15.0338" y1="12.23185" x2="34.02686" y2="36.82879" gradientTransform="matrix(5.333333,0,0,5.333333,0,0)">
<stop offset="0" style="stop-color:rgb(0%,0%,0%);stop-opacity:0.109804;"/>
<stop offset="1" style="stop-color:rgb(0%,0%,0%);stop-opacity:0;"/>
</linearGradient>
</defs>
<g id="surface1">
<path style=" stroke:none;fill-rule:nonzero;fill:rgb(47.45098%,33.333333%,28.235294%);fill-opacity:1;" d="M 10.667969 128 C 10.667969 63.199219 63.199219 10.667969 128 10.667969 C 192.800781 10.667969 245.332031 63.199219 245.332031 128 C 245.332031 192.800781 192.800781 245.332031 128 245.332031 C 63.199219 245.332031 10.667969 192.800781 10.667969 128 Z M 10.667969 128 "/>
<path style=" stroke:none;fill-rule:nonzero;fill:url(#linear0);" d="M 169.523438 196.421875 L 97.792969 196.421875 C 94.503906 196.421875 91.515625 195.074219 89.347656 192.910156 L 83.691406 187.25 C 81.523438 185.085938 80.179688 182.097656 80.179688 178.808594 L 80.179688 119.035156 C 80.179688 112.457031 85.558594 107.078125 92.136719 107.078125 L 98.113281 107.078125 L 98.113281 95.125 C 98.113281 78.625 111.503906 65.238281 128 65.238281 C 136.25 65.238281 143.722656 68.582031 149.128906 73.992188 L 154.789062 79.652344 C 160.195312 85.058594 163.542969 92.53125 163.542969 100.78125 L 163.542969 107.078125 L 163.863281 107.078125 C 167.152344 107.078125 170.140625 108.421875 172.308594 110.589844 L 177.964844 116.246094 C 180.132812 118.414062 181.476562 121.402344 181.476562 124.691406 L 181.476562 184.464844 C 181.476562 191.039062 176.097656 196.421875 169.523438 196.421875 Z M 169.523438 112.734375 L 163.542969 112.734375 L 157.886719 107.078125 L 157.886719 95.125 C 157.886719 88.316406 155.605469 82.039062 151.769531 77.011719 C 146.742188 73.171875 140.464844 70.894531 133.65625 70.894531 C 117.160156 70.894531 103.769531 84.28125 103.769531 100.78125 L 103.769531 112.734375 L 97.792969 112.734375 C 91.21875 112.734375 85.835938 118.117188 85.835938 124.691406 L 85.835938 184.464844 C 85.835938 186.300781 86.253906 188.039062 87.003906 189.597656 C 88.558594 190.34375 90.300781 190.761719 92.136719 190.761719 L 163.863281 190.761719 C 170.441406 190.761719 175.820312 185.382812 175.820312 178.808594 L 175.820312 119.035156 C 175.820312 117.199219 175.402344 115.457031 174.65625 113.902344 C 173.097656 113.15625 171.355469 112.734375 169.523438 112.734375 Z M 133.65625 142.621094 C 127.082031 142.621094 121.703125 148.003906 121.703125 154.578125 C 121.703125 156.414062 122.121094 158.152344 122.867188 159.710938 C 124.425781 160.457031 126.164062 160.875 128 160.875 C 134.574219 160.875 139.953125 155.496094 139.953125 148.921875 C 139.953125 147.085938 139.535156 145.34375 138.789062 143.789062 C 137.230469 143.042969 135.492188 142.621094 133.65625 142.621094 Z M 133.65625 166.53125 C 130.371094 166.53125 127.378906 165.1875 125.214844 163.019531 L 119.558594 157.363281 C 117.390625 155.199219 116.046875 152.207031 116.046875 148.921875 C 116.046875 142.347656 121.425781 136.964844 128 136.964844 C 131.289062 136.964844 134.277344 138.3125 136.441406 140.476562 L 142.101562 146.136719 C 144.265625 148.300781 145.613281 151.289062 145.613281 154.578125 C 145.613281 161.152344 140.230469 166.53125 133.65625 166.53125 Z M 133.65625 82.25 C 123.433594 82.25 115.125 90.558594 115.125 100.78125 L 115.125 107.078125 L 146.53125 107.078125 L 146.53125 95.125 C 146.53125 91.457031 145.460938 88.039062 143.621094 85.160156 C 140.742188 83.320312 137.320312 82.25 133.65625 82.25 Z M 152.1875 112.734375 L 115.125 112.734375 L 109.46875 107.078125 L 109.46875 95.125 C 109.46875 84.902344 117.777344 76.59375 128 76.59375 C 133.109375 76.59375 137.742188 78.671875 141.097656 82.027344 L 146.753906 87.683594 C 150.109375 91.039062 152.1875 95.671875 152.1875 100.78125 Z M 152.1875 112.734375 "/>
<path style=" stroke:none;fill-rule:nonzero;fill:rgb(100%,100%,100%);fill-opacity:1;" d="M 175.820312 119.035156 L 175.820312 178.808594 C 175.820312 185.382812 170.441406 190.761719 163.863281 190.761719 L 92.136719 190.761719 C 85.558594 190.761719 80.179688 185.382812 80.179688 178.808594 L 80.179688 119.035156 C 80.179688 112.457031 85.558594 107.078125 92.136719 107.078125 L 98.113281 107.078125 L 98.113281 95.125 C 98.113281 78.625 111.503906 65.238281 128 65.238281 C 144.496094 65.238281 157.886719 78.625 157.886719 95.125 L 157.886719 107.078125 L 163.863281 107.078125 C 170.441406 107.078125 175.820312 112.457031 175.820312 119.035156 Z M 139.953125 148.921875 C 139.953125 142.347656 134.574219 136.964844 128 136.964844 C 121.425781 136.964844 116.046875 142.347656 116.046875 148.921875 C 116.046875 155.496094 121.425781 160.875 128 160.875 C 134.574219 160.875 139.953125 155.496094 139.953125 148.921875 Z M 146.53125 95.125 C 146.53125 84.902344 138.222656 76.59375 128 76.59375 C 117.777344 76.59375 109.46875 84.902344 109.46875 95.125 L 109.46875 107.078125 L 146.53125 107.078125 Z M 146.53125 95.125 "/>
</g>
</svg>
